<mxfile host="app.diagrams.net" modified="2023-08-05T11:36:21.008Z" agent="Mozilla/5.0 (Windows NT 10.0; Win64; x64) AppleWebKit/537.36 (KHTML, like Gecko) Chrome/115.0.0.0 Safari/537.36 Edg/115.0.1901.188" etag="H9VuMl1AwSB2_V1gtBEA" version="21.6.6" type="github">
  <diagram name="페이지-1" id="-wmfMx4bnkZEz9of4ctO">
    <mxGraphModel dx="961" dy="550" grid="1" gridSize="10" guides="1" tooltips="1" connect="1" arrows="1" fold="1" page="1" pageScale="1" pageWidth="827" pageHeight="1169" math="0" shadow="0">
      <root>
        <mxCell id="0" />
        <mxCell id="1" parent="0" />
        <mxCell id="L6h8Ostu7ufJHEHWD4UH-3" style="edgeStyle=orthogonalEdgeStyle;rounded=0;orthogonalLoop=1;jettySize=auto;html=1;" parent="1" source="L6h8Ostu7ufJHEHWD4UH-1" target="L6h8Ostu7ufJHEHWD4UH-2" edge="1">
          <mxGeometry relative="1" as="geometry" />
        </mxCell>
        <mxCell id="L6h8Ostu7ufJHEHWD4UH-1" value="&lt;font face=&quot;Verdana&quot; style=&quot;font-size: 28px;&quot;&gt;시작&lt;/font&gt;" style="ellipse;whiteSpace=wrap;html=1;" parent="1" vertex="1">
          <mxGeometry x="320" y="20" width="120" height="80" as="geometry" />
        </mxCell>
        <mxCell id="L6h8Ostu7ufJHEHWD4UH-5" style="edgeStyle=orthogonalEdgeStyle;rounded=0;orthogonalLoop=1;jettySize=auto;html=1;entryX=0.5;entryY=0;entryDx=0;entryDy=0;" parent="1" source="L6h8Ostu7ufJHEHWD4UH-2" target="L6h8Ostu7ufJHEHWD4UH-4" edge="1">
          <mxGeometry relative="1" as="geometry" />
        </mxCell>
        <mxCell id="L6h8Ostu7ufJHEHWD4UH-2" value="&lt;h4&gt;&lt;font size=&quot;1&quot;&gt;client 열기&lt;/font&gt;&lt;/h4&gt;" style="rounded=1;whiteSpace=wrap;html=1;" parent="1" vertex="1">
          <mxGeometry x="320" y="140" width="120" height="60" as="geometry" />
        </mxCell>
        <mxCell id="L6h8Ostu7ufJHEHWD4UH-7" style="edgeStyle=orthogonalEdgeStyle;rounded=0;orthogonalLoop=1;jettySize=auto;html=1;" parent="1" source="L6h8Ostu7ufJHEHWD4UH-4" target="L6h8Ostu7ufJHEHWD4UH-6" edge="1">
          <mxGeometry relative="1" as="geometry" />
        </mxCell>
        <mxCell id="L6h8Ostu7ufJHEHWD4UH-4" value="setting button&lt;br&gt;&amp;amp;&lt;br&gt;start button" style="rounded=0;whiteSpace=wrap;html=1;" parent="1" vertex="1">
          <mxGeometry x="320" y="240" width="120" height="60" as="geometry" />
        </mxCell>
        <mxCell id="L6h8Ostu7ufJHEHWD4UH-9" style="edgeStyle=orthogonalEdgeStyle;rounded=0;orthogonalLoop=1;jettySize=auto;html=1;" parent="1" source="L6h8Ostu7ufJHEHWD4UH-6" target="L6h8Ostu7ufJHEHWD4UH-8" edge="1">
          <mxGeometry relative="1" as="geometry" />
        </mxCell>
        <mxCell id="L6h8Ostu7ufJHEHWD4UH-10" style="edgeStyle=orthogonalEdgeStyle;rounded=0;orthogonalLoop=1;jettySize=auto;html=1;" parent="1" source="L6h8Ostu7ufJHEHWD4UH-6" edge="1">
          <mxGeometry relative="1" as="geometry">
            <mxPoint x="560" y="390" as="targetPoint" />
          </mxGeometry>
        </mxCell>
        <mxCell id="L6h8Ostu7ufJHEHWD4UH-6" value="만약&lt;br&gt;&amp;nbsp;start button&lt;br&gt;을 클릭했다면" style="rhombus;whiteSpace=wrap;html=1;" parent="1" vertex="1">
          <mxGeometry x="282.5" y="350" width="195" height="80" as="geometry" />
        </mxCell>
        <mxCell id="L6h8Ostu7ufJHEHWD4UH-8" value="game class 불러오기" style="rounded=0;whiteSpace=wrap;html=1;" parent="1" vertex="1">
          <mxGeometry x="320" y="500" width="120" height="60" as="geometry" />
        </mxCell>
        <mxCell id="L6h8Ostu7ufJHEHWD4UH-11" value="구성 설정하기&lt;br&gt;&lt;font style=&quot;font-size: 9px;&quot;&gt;(해상도, 게임 소리)&lt;/font&gt;" style="rounded=0;whiteSpace=wrap;html=1;" parent="1" vertex="1">
          <mxGeometry x="561" y="360" width="120" height="60" as="geometry" />
        </mxCell>
      </root>
    </mxGraphModel>
  </diagram>
</mxfile>
